<svg width="24" height="24" viewBox="0 0 24 24" fill="none" xmlns="http://www.w3.org/2000/svg">
<path fill-rule="evenodd" clip-rule="evenodd" d="M3 3.75H21C21.3977 3.7504 21.779 3.90856 22.0602 4.18978C22.3414 4.471 22.4996 4.8523 22.5 5.25V18.75C22.4996 19.1477 22.3414 19.529 22.0602 19.8102C21.779 20.0914 21.3977 20.2496 21 20.25H3C2.6023 20.2496 2.221 20.0914 1.93978 19.8102C1.65856 19.529 1.5004 19.1477 1.5 18.75V5.25C1.5004 4.8523 1.65856 4.471 1.93978 4.18978C2.221 3.90856 2.6023 3.7504 3 3.75ZM11.25 5.25H3V18.75H11.25V5.25ZM21 5.25H12.75V18.75H21V5.25ZM9 7.5H5.25C4.83579 7.5 4.5 7.83579 4.5 8.25C4.5 8.66421 4.83579 9 5.25 9H9C9.41421 9 9.75 8.66421 9.75 8.25C9.75 7.83579 9.41421 7.5 9 7.5ZM18.75 7.5H15C14.5858 7.5 14.25 7.83579 14.25 8.25C14.25 8.66421 14.5858 9 15 9H18.75C19.1642 9 19.5 8.66421 19.5 8.25C19.5 7.83579 19.1642 7.5 18.75 7.5ZM18.75 11.25H15C14.5858 11.25 14.25 11.5858 14.25 12C14.25 12.4142 14.5858 12.75 15 12.75H18.75C19.1642 12.75 19.5 12.4142 19.5 12C19.5 11.5858 19.1642 11.25 18.75 11.25ZM15 15H18.75C19.1642 15 19.5 15.3358 19.5 15.75C19.5 16.1642 19.1642 16.5 18.75 16.5H15C14.5858 16.5 14.25 16.1642 14.25 15.75C14.25 15.3358 14.5858 15 15 15ZM5.25 11.25H9C9.41421 11.25 9.75 11.5858 9.75 12C9.75 12.4142 9.41421 12.75 9 12.75H5.25C4.83579 12.75 4.5 12.4142 4.5 12C4.5 11.5858 4.83579 11.25 5.25 11.25ZM9 15H5.25C4.83579 15 4.5 15.3358 4.5 15.75C4.5 16.1642 4.83579 16.5 5.25 16.5H9C9.41421 16.5 9.75 16.1642 9.75 15.75C9.75 15.3358 9.41421 15 9 15Z" fill="#363636"/>
</svg>
