<svg width="32" height="32" viewBox="0 0 32 32" fill="none" xmlns="http://www.w3.org/2000/svg">
<g clip-path="url(#clip0_31028_8583)">
<path fill-rule="evenodd" clip-rule="evenodd" d="M4 6C4 4.89543 4.89543 4 6 4H26C27.1046 4 28 4.89543 28 6V26C28 27.1046 27.1046 28 26 28H6C4.89543 28 4 27.1046 4 26V6ZM26 6H6V26H26V6Z" fill="white"/>
<path fill-rule="evenodd" clip-rule="evenodd" d="M22 2C22.5523 2 23 2.44772 23 3V7C23 7.55229 22.5523 8 22 8C21.4477 8 21 7.55229 21 7V3C21 2.44772 21.4477 2 22 2Z" fill="white"/>
<path fill-rule="evenodd" clip-rule="evenodd" d="M10 2C10.5523 2 11 2.44772 11 3V7C11 7.55229 10.5523 8 10 8C9.44772 8 9 7.55229 9 7V3C9 2.44772 9.44772 2 10 2Z" fill="white"/>
<path fill-rule="evenodd" clip-rule="evenodd" d="M4 11C4 10.4477 4.44772 10 5 10H27C27.5523 10 28 10.4477 28 11C28 11.5523 27.5523 12 27 12H5C4.44772 12 4 11.5523 4 11Z" fill="white"/>
<rect x="6.00513" y="6.00537" width="20.0095" height="3.99479" fill="#00CA71"/>
<rect x="5.65796" y="11.5601" width="20.8538" height="14.8685" fill="white"/>
<path fill-rule="evenodd" clip-rule="evenodd" d="M10.5 15.9995C10.5 15.4472 10.9477 14.9995 11.5 14.9995H15C15.3844 14.9995 15.7348 15.2199 15.9013 15.5663C16.0678 15.9128 16.021 16.324 15.7809 16.6242L14.6729 18.0092C14.9969 18.2269 15.2762 18.5063 15.4942 18.8324C15.7683 19.2425 15.937 19.7139 15.9855 20.2048C16.0339 20.6957 15.9606 21.1909 15.772 21.6467C15.5834 22.1025 15.2853 22.5047 14.9041 22.8178C14.5229 23.1309 14.0704 23.3451 13.5866 23.4416C13.1029 23.5381 12.6028 23.5137 12.1307 23.3708C11.6586 23.2279 11.229 22.9707 10.88 22.6221C10.4892 22.2318 10.4888 21.5987 10.8791 21.2079C11.2694 20.8171 11.9026 20.8168 12.2933 21.207C12.4097 21.3232 12.5529 21.409 12.7102 21.4566C12.8676 21.5043 13.0343 21.5124 13.1955 21.4802C13.3568 21.4481 13.5076 21.3766 13.6347 21.2723C13.7618 21.1679 13.8611 21.0338 13.924 20.8819C13.9869 20.73 14.0113 20.5649 13.9952 20.4013C13.979 20.2376 13.9228 20.0805 13.8314 19.9438C13.74 19.8071 13.6163 19.6951 13.4713 19.6176C13.3263 19.5401 13.1644 19.4995 13 19.4995C12.6156 19.4995 12.2652 19.2792 12.0987 18.9327C11.9322 18.5862 11.979 18.175 12.2191 17.8748L12.9194 16.9995H11.5C10.9477 16.9995 10.5 16.5518 10.5 15.9995Z" fill="#00CA71"/>
<path fill-rule="evenodd" clip-rule="evenodd" d="M20.4473 15.1051C20.7861 15.2745 21.0001 15.6207 21.0001 15.9995V22.4995C21.0001 23.0518 20.5523 23.4995 20.0001 23.4995C19.4478 23.4995 19.0001 23.0518 19.0001 22.4995V17.9995L18.6001 18.2995C18.1582 18.6309 17.5314 18.5413 17.2001 18.0995C16.8687 17.6577 16.9582 17.0309 17.4001 16.6995L19.4001 15.1995C19.7031 14.9723 20.1085 14.9357 20.4473 15.1051Z" fill="#00CA71"/>
</g>
<defs>
<clipPath id="clip0_31028_8583">
<rect width="32" height="32" fill="white"/>
</clipPath>
</defs>
</svg>
