<svg width="25" height="24" viewBox="0 0 25 24" fill="none" xmlns="http://www.w3.org/2000/svg">
<g id="check">
<path id="Checkbox-active" fill-rule="evenodd" clip-rule="evenodd" d="M6.19995 0C2.88624 0 0.199951 2.68629 0.199951 6V18C0.199951 21.3137 2.88624 24 6.19995 24H18.2C21.5137 24 24.2 21.3137 24.2 18V6C24.2 2.68629 21.5137 0 18.2 0H6.19995ZM16.9415 8.75844C16.5969 8.41385 16.0383 8.41385 15.6937 8.75844L11.0235 13.4286L8.70622 11.1114C8.36164 10.7668 7.80297 10.7668 7.45839 11.1114C7.11381 11.456 7.11381 12.0146 7.45839 12.3592L10.3996 15.3004C10.7441 15.645 11.3028 15.645 11.6474 15.3004L16.9415 10.0063C17.2861 9.66169 17.2861 9.10302 16.9415 8.75844Z" fill="#FF5253"/>
</g>
</svg>
