<svg width="14" height="14" viewBox="0 0 14 14" fill="none" xmlns="http://www.w3.org/2000/svg">
<path fill-rule="evenodd" clip-rule="evenodd" d="M10.9126 3.0876C11.1404 3.31541 11.1404 3.68475 10.9126 3.91256L3.91256 10.9126C3.68475 11.1404 3.31541 11.1404 3.0876 10.9126C2.8598 10.6848 2.8598 10.3154 3.0876 10.0876L10.0876 3.0876C10.3154 2.8598 10.6848 2.8598 10.9126 3.0876Z" fill="#363636"/>
<path fill-rule="evenodd" clip-rule="evenodd" d="M3.0876 3.0876C3.31541 2.8598 3.68475 2.8598 3.91256 3.0876L10.9126 10.0876C11.1404 10.3154 11.1404 10.6848 10.9126 10.9126C10.6848 11.1404 10.3154 11.1404 10.0876 10.9126L3.0876 3.91256C2.8598 3.68475 2.8598 3.31541 3.0876 3.0876Z" fill="#363636"/>
</svg>
