<svg width="16" height="16" viewBox="0 0 16 16" fill="none" xmlns="http://www.w3.org/2000/svg">
<path fill-rule="evenodd" clip-rule="evenodd" d="M12.4714 3.52876C12.7317 3.78911 12.7317 4.21122 12.4714 4.47157L4.47138 12.4716C4.21103 12.7319 3.78892 12.7319 3.52858 12.4716C3.26823 12.2112 3.26823 11.7891 3.52858 11.5288L11.5286 3.52876C11.7889 3.26841 12.211 3.26841 12.4714 3.52876Z" fill="#363636"/>
<path fill-rule="evenodd" clip-rule="evenodd" d="M3.52858 3.52876C3.78892 3.26841 4.21103 3.26841 4.47138 3.52876L12.4714 11.5288C12.7317 11.7891 12.7317 12.2112 12.4714 12.4716C12.211 12.7319 11.7889 12.7319 11.5286 12.4716L3.52858 4.47157C3.26823 4.21122 3.26823 3.78911 3.52858 3.52876Z" fill="#363636"/>
</svg>
